<svg xmlns="http://www.w3.org/2000/svg" width="1365.333" height="1365.333" version="1.0" viewBox="0 0 1024 1024"><path d="M0 512v512h1024V0H0zm148.6-171.2c5.1 4.1 5.7 9.7 1.7 14.1-7.1 7.7-19.9 1.8-17.8-8 1.5-6.6 11.1-10.2 16.1-6.1m104.3 1.3c4 3.9 4.2 8.5.6 12.7-6.3 7.5-17.5 3.4-17.5-6.2 0-3.7.5-4.8 3.1-7 4.4-3.8 9.8-3.6 13.8.5m223.1-.8c0 .3-10.7 25-13.8 31.7-5.6 12.4-11.2 25.1-11.2 25.4s-1.3 3.3-2.9 6.8-4.4 9.9-6.4 14.3c-1.9 4.4-5.6 12.8-8.3 18.7l-4.7 10.8h-6.9c-3.7 0-6.8-.3-6.8-.6s5.2-12.3 11.6-26.7 13.2-29.8 15.1-34.2c2-4.4 4.8-10.7 6.2-14 1.5-3.3 5.4-12 8.6-19.3l5.8-13.2h6.9c3.7 0 6.8.1 6.8.3m-292.7 27.4-.2 26.8 5.2-5.5c2.9-3 8.8-9.5 13.3-14.3l8.1-8.7h9.1c5.1 0 9.2.4 9.2.9 0 .8-8.8 10.9-22.7 26.2l-2.4 2.6 13.5 19.6c7.5 10.7 13.6 19.8 13.6 20.1s-4.6.6-10.2.5l-10.3-.1-9.5-14.3c-5.2-8-9.8-14.5-10.1-14.5-.4 0-2.1 1.7-3.9 3.7l-3.2 3.6.4 10.9.4 10.8H165v-95h18.5zm503.9 0 .3 26.7 12.9-14.2 12.8-14.2h9.4c5.2 0 9.4.4 9.4.8 0 .7-2.7 3.9-15.8 18.7-1.9 2.2-4.8 5.4-6.4 7.1l-2.9 3.1 13.5 19.7c7.5 10.8 13.6 19.8 13.6 20.1s-4.6.5-10.2.5l-10.3-.1-8.8-13.2c-4.8-7.3-9.2-13.9-9.7-14.7-.8-1.2-1.5-.9-4.5 2l-3.5 3.4V437h-18v-95h18zM64.1 352.2c3.7 5.1 13.4 19.1 21.8 31.2l15.1 21.8V343h18.5l-.3 47-.2 47.1-7.7-.3-7.7-.3-6.1-8.6c-3.3-4.7-13-18.5-21.5-30.7S60.2 375.1 59.8 375c-.5 0-.8 13.9-.8 31v31H41v-94h16.6zm227.9 6.3v8.5h14v13h-14v19.8c0 22.9.1 23.1 9 24l5 .5V437h-8.5c-10.1 0-16.1-2.3-20.3-7.8l-2.7-3.5-.3-22.9-.3-22.8H263v-13h11v-17h18zm68.4 9.1c2.7.9 6.6 3.4 8.7 5.5 6.2 6.2 6.9 10.3 6.9 39.1V437h-17v-9l-4.6 3.5c-7.1 5.5-10.9 6.7-18.9 6.3-12.5-.6-20.4-7-21.3-17.2-.9-10.8 2-16.6 10.2-20.8 4.2-2.2 18.8-4.8 26.7-4.8 5.4 0 6.9-1.3 6.9-5.8 0-4.4-1.4-6.8-5-8.7-6.4-3.3-15.8-.9-17.5 4.5-.6 1.8-1.6 2-9.1 2-7.8 0-8.4-.1-8.4-2 0-5.3 6.1-13 13.3-16.6 6.9-3.6 19.9-4 29.1-.8m200.7-.1c12.2 4.3 18.9 14.7 20.3 31.7l.6 6.8h-25.1c-23.4 0-25 .1-24.5 1.7.3 1 .8 3.1 1.2 4.8.9 4 4.8 9.2 8.4 11 6.6 3.4 18.1 1 21-4.4.9-1.9 2-2.1 9.1-2.1 7.9 0 8 0 7.4 2.2-3.6 12-14 18.8-28.9 18.8-9.6 0-17.3-2.1-22.9-6.4-15.7-11.9-17-42.1-2.5-56.8 8.9-9 23-11.8 35.9-7.3m80.2 0c4.4 1.8 9.1 6.5 12 11.9 2.1 3.9 2.2 5.5 2.5 30.8l.3 26.8h-19l-.3-25-.3-25-2.7-2.7c-2.2-2.1-3.9-2.7-8.6-3.1-5.2-.4-6.1-.1-9.1 2.4-5.7 4.7-6.1 6.9-6.1 31.4v22h-18v-70h18v11.5l2-3.2c2.2-3.7 8.5-8.2 13.2-9.4 4.2-1 11.6-.3 16.1 1.6m141.2.9c11.5 5.4 18.5 18.1 18.5 33.8v3.8h-49v2.8c0 3.8 3.9 11.2 7.2 13.6 2.9 2.1 11.9 3.3 16.4 2.2 1.5-.4 4.2-2.3 5.9-4.2 3.2-3.5 3.3-3.5 10.8-3.2l7.6.3-2 4.5c-2.6 5.8-6.2 9.6-12.4 12.8-4.6 2.5-6 2.7-16.5 2.7-10.2 0-12.1-.3-16.5-2.5-6.9-3.4-12.9-9.9-15.6-16.8-2.9-7.5-3.3-23.2-.6-30.7 3.7-10.5 13.4-19.3 23.8-21.5 6.5-1.3 16.6-.3 22.4 2.4m141.8-2.8c4.4.8 12.4 7.4 13.3 11 .8 3.2 1.5 3 4.3-1.5 6.5-10.6 22-13 33-5 7.5 5.4 7.6 5.8 7.9 38.1l.3 28.8H965v-49.3l-2.6-3.4c-2.3-3.1-2.9-3.3-8.2-3.3-6 .1-8.8 1.5-11.1 5.7-.7 1.5-1.1 10-1.1 26.2V437h-18v-24c0-30.4-.6-32-11.9-32-4.1 0-5.6.5-8.2 2.8-2.8 2.5-3.2 3.6-4 11.2-.5 4.7-.8 15.9-.7 25l.2 16.5-9.2.3-9.2.3V367h18v11.5l1.9-3c5-8.2 13.1-11.6 23.4-9.9M152 402v35h-19v-70h19zm103 0v35h-18v-70h18zm568.4-33.3c1.7 5.9 9.3 31.4 12 40.3l3.2 10.5 2.6-8c1.3-4.4 4.9-16.2 7.9-26.2l5.4-18.3h9.3c5 0 9.2.2 9.2.4 0 .4-6.9 19.9-14.4 40.6-2.4 6.9-6.7 18.6-9.3 26.1-6 16.5-9.1 22.1-14.5 25.7-3.8 2.5-4.9 2.7-13.9 2.7-5.4 0-9.9-.3-10.1-.5-.2-.3-.2-3.6 0-7.3l.4-6.8 4.1.6c5.8.9 9.2-.7 11.6-5.3l2-4-11.8-33.3c-6.6-18.4-12.4-34.6-13-36.2L803 367h10c8.5 0 9.9.2 10.4 1.7M510.8 487.6c3.4 2.3 2.7 8.3-1 10.4-2.5 1.3-3.1 1.3-5.5 0-3.8-2.1-4.5-8.1-1.1-10.4 1.2-.9 2.9-1.6 3.8-1.6s2.6.7 3.8 1.6m263.3 2.8c5.8 2.4 9.9 8.3 9.9 14.2 0 5.2-5.2 12.3-12.8 17.4l-2.2 1.5 6.2 7.7 6.3 7.8 1.2-2.8c.7-1.5 1.2-4.2 1.3-6V527h10.8l-.9 4.2c-.5 2.4-1.9 7-3.1 10.4l-2.1 6.1 4.7 5.9 4.6 5.9-4.7.3c-4.3.3-5.1 0-7.5-2.7L783 554l-3.8 2.5c-7.1 4.7-20.1 5.2-28 1.1-4.1-2.1-8-7-9.1-11.4-2-7.7 2.2-17.8 9.3-22.2 2-1.2 3.6-2.3 3.6-2.5s-1.6-2.6-3.5-5.5c-3-4.4-3.5-6-3.5-10.9s.4-6.2 3.2-9.5c1.7-2.1 4.5-4.4 6.2-5.2 4.1-1.8 12.5-1.8 16.7 0M229 514.6c0 20.6.3 25.2 1.6 28 2.4 5.1 6.8 7.7 13.5 8.2 7.1.5 11.7-.9 15.5-4.9l2.9-3 .3-26.5.3-26.4H274v26.2c0 23.3-.3 26.8-1.9 30.3-2.2 5-8.6 10.8-13.7 12.6-5.8 2-19.9 1.8-25.6-.4-6-2.3-12.2-9.1-13.7-15.2-.7-2.6-1.1-14.2-1.1-28.9V490h11zm69 10.4v35h-11v-70h11zm73.6-31.8c6.4 3.4 11.3 9 13.9 16 2.9 7.8 2.8 25.4-.2 32-3.2 7.1-9.6 13.4-16.1 15.9-4.8 1.9-8.2 2.3-21.9 2.7l-16.3.4v-70.4l17.8.4c16.9.3 17.9.5 22.8 3m108.1 14.3c4.7 1.4 11.3 6.9 11.3 9.5 0 .4.3 1.5.6 2.4.5 1.3-.2 1.6-4.1 1.6s-5.2-.5-7.5-3c-2.5-2.6-3.5-3-8.3-3-4.5 0-6.2.5-8.4 2.4-2.4 2.1-2.6 2.7-1.8 5.2 1.1 3.2 3.1 4.1 16.5 7.5 6.9 1.8 9.1 2.9 11.9 5.7 3.1 3.4 3.3 3.9 2.9 9.6-.4 5.5-.8 6.2-4.7 9.7-6.3 5.6-15.3 7.2-24.7 4.4-5.8-1.7-11.1-6.6-12-11.3l-.6-3.2h4.4c3.7 0 4.8.5 6.6 3 3.9 5.3 14 6.2 19 1.7 4.6-4.2 1.3-9.6-7.2-11.7-15.5-3.8-21.2-7.4-22.3-14.3-1.9-12.4 12.9-20.8 28.4-16.2m69.2 0c1.8.4 5 2.2 7.1 4.1l3.8 3.4-.2-3.7-.1-3.8 4.8-.3 4.7-.3v29.6c0 32.7-.3 34.3-6.1 38.8-4.5 3.4-9.9 4.7-19 4.7-8.9 0-15-2.6-18.6-8-3.5-5.1-3.1-6 3-6 4.1 0 5.5.4 6.4 2 1.6 2.4 8.4 4.3 12.6 3.5 9.6-1.9 11.7-4.7 11.7-15.6v-7.2l-2.2 2.8c-2.7 3.4-9.2 6.5-13.8 6.5-12.8 0-20.6-8.1-21.7-22.5-1.3-16.3 5.5-26.6 18.7-28.8 2.5-.4 2.9-.4 8.9.8m66.3 1.1c3.6 1.9 7.4 7 8.7 11.9.6 2.2 1.1 12 1.1 21.7V560h-10.9l-.3-19.6-.3-19.6-2.8-2.4c-3.7-3.2-12.2-3.4-16-.4s-4.7 7.7-4.7 25.7V560h-10v-53.1l4.8.3c4.7.3 4.7.3 5.2 4.3l.5 3.9 1.7-2.6c4.1-6.2 15-8.2 23-4.2m52.5.1c7.3 3.4 12.1 11.3 13 21.4l.6 5.9-19 .2-19 .3 1.2 5c.9 3.2 2.4 5.9 4.4 7.7 2.7 2.4 4 2.8 9.2 2.8 5.7 0 6.4-.2 9.5-3.5 2.8-3 3.9-3.5 7.8-3.5 2.5 0 4.6.2 4.6.5 0 1.1-3.3 7-4.9 8.9-4.5 5.1-14.6 7.5-23.6 5.6-10.8-2.2-18.5-13.1-18.5-25.9.1-10.7 3.9-19 10.8-23.6 6.5-4.3 16.7-5.1 23.9-1.8m-237.2.2c7.9 3.5 11.4 9.5 13 21.8l.7 5.3h-38.4l.7 3.2c1.9 8.8 6.3 12.8 14.2 12.8 5.8 0 11.3-2.7 11.3-5.6 0-1 1.3-1.4 4.9-1.4 2.8 0 5.2.4 5.5.9 1.2 1.8-5.2 9.8-9.5 11.9-17.9 8.6-35.4-1.6-36.7-21.3-.8-12.9 3.9-22.9 13-27.4 5.5-2.7 15.6-2.8 21.3-.2m81.5 24.6V560h-10v-53h10zM717.5 512c0 4.3-.1 4.5-2.8 4.2-5.1-.5-10.7 1.7-12.7 5.1-1.8 2.9-2 5.1-2 20.9V560h-11v-52h11v6.8l3.9-4c3.7-3.6 4.3-3.9 8.8-3.6l4.8.3zM128 604.5v4.5H95v21.5l15-.3 15-.3V640H95v29H84v-69h44zm71 28.4c0 18.1.3 33.6.6 34.5.5 1.3-.3 1.6-5 1.6H189v-69h10zm21 1.6V669h-10v-69h10zm204-14.8.1 19.8 10.2-10.8 10.2-10.7h12.9l-10.3 10.5-10.3 10.4 2 2.8c1.1 1.5 6.1 8.2 11.2 14.8l9.2 12-5.7.3c-3.4.2-6.3-.2-7.1-.9-.9-.7-4.9-5.9-9.1-11.6l-7.6-10.4-2.9 2.8c-2.7 2.5-2.8 3.1-2.8 11.5v8.8h-10v-69h10zm101.8-16.8c6.8 3 13.3 10.2 15.5 17.1 2.5 7.6 2.3 21.9-.4 29.8-1.6 4.9-3.2 7.2-7.4 11-7.4 6.8-12.9 8.2-31.8 8.2H487v-69.2l16.8.4c14.9.3 17.3.6 22 2.7M716 634.5V669h-10v-69h10zm-423-23v6.5h11v8h-11v15.5c0 14.2.2 15.7 2 17.5 1.2 1.2 3.3 2 5.5 2 3.4 0 3.5.1 3.5 4v4h-6.1c-6.9 0-10.7-1.8-13.3-6-1.3-2.3-1.6-5.9-1.6-19.9V626h-8v-8h8v-13h10zm-30.1 8.4c1.8 1.3 4.2 4.2 5.2 6.5l1.8 4.1-4.5.3c-3.8.3-4.9-.1-6.9-2.2-2.8-3-6.3-4-11.6-3.3-5.2.7-6.9 2.2-6.9 6.2s2.9 5.6 14.8 8.5c9.4 2.2 13.4 4.6 15.2 9 1.5 3.7.8 9.8-1.5 13.4-4 6-17.6 9.3-27.5 6.6-5.1-1.4-11.4-7.3-12.2-11.4-.5-2.5-.4-2.6 4.7-2.6 4.6 0 5.3.3 6.3 2.5 1.4 3.1 4.8 4.5 11 4.5 3.7 0 5.3-.6 7.5-2.5 3.3-3.1 3.4-4.6.5-7.9-1.7-1.8-4.7-3.1-10.7-4.6-13.9-3.3-18.5-7.3-18.3-15.6 0-5.8 2.3-9.1 8.3-12.2 3.8-2 5.6-2.3 12.9-2 7.1.2 9.1.7 11.9 2.7m78.2-1.8c5.1 1.7 9.6 6.5 10.8 11.5.6 2.3 1.1 12.2 1.1 21.8V669h-10v-7.2l-4.2 3.6c-4.5 3.9-8.8 5.1-14.7 4.3-9.2-1.2-14.1-6.5-14.1-15.3 0-9.3 6.1-14 19.7-15 12.3-.8 12.3-.9 12.3-5.2s-2.6-7.8-6.6-8.8c-4.2-1.1-9.7.3-12.1 3.1-1.8 2-3.1 2.5-7.2 2.5H311l1.1-2.8c2.6-6.9 10-11.1 19.5-11.2 3.4 0 7.6.5 9.5 1.1m54.5 1.1c4.8 2.2 10.4 8.7 10.4 12 0 1.5-.8 1.8-4.7 1.8-4.3 0-5-.3-6.5-3-2.1-3.8-6-5.3-11.6-4.7-9.7 1.1-14.7 12.9-11.1 26.2 3 11.1 16.1 13.9 22.3 4.9 2.1-3.2 3-3.6 7-3.8 3.6-.1 4.6.2 4.6 1.4 0 3-4.6 9.5-8.8 12.5-4.1 2.8-5 3-13.1 3-7.8 0-9.2-.3-12.9-2.7-2.2-1.5-5.4-4.9-6.9-7.5-2.6-4.5-2.8-5.5-2.8-15.8 0-10.1.2-11.4 2.7-15.6 2.6-4.4 8.4-9.2 12.4-10.2 5.3-1.3 14.6-.6 19 1.5m187.8-1c8.3 2.5 14.6 12.6 14.6 23.4v4.4h-37.2l.7 3.2c1.8 8 5.3 11.6 12.2 12.4 5.5.7 10.4-1.1 12.6-4.6.9-1.5 2.3-2 5.9-2 2.7 0 4.8.3 4.8.6s-.7 2.1-1.6 3.9c-5.3 11.3-25.1 14.2-35.9 5.3-5.2-4.3-7.7-10-8.3-18.5-.6-8.9.8-14.3 5.3-20.4 5.7-7.9 16.1-10.9 26.9-7.7m104.5 2.3c5.8 3.9 9.2 10.3 9.8 19l.6 6.5h-18.7c-21 0-20.3-.3-16.7 7.7 2.3 5 5.7 7.4 11.5 8 3.4.4 5.3 0 7.9-1.6 1.9-1.2 3.8-2.8 4.1-3.6.4-1.1 2.1-1.5 5.6-1.5 4.9 0 5.1.1 4.4 2.2-2.3 7.6-10.8 12.8-20.7 12.8-10 0-17.8-4.4-21.9-12.3-2.6-5.1-3.6-17.2-1.9-23.4 1.6-5.8 6.7-12.2 12.1-15 3.8-2.1 5.6-2.4 12-2.1s8.2.8 11.9 3.3m71.8-1.1c9.5 4.5 13.9 13.3 13.1 26.7-.9 15.9-10.9 24.9-26.4 23.6-7.6-.6-13.4-4.1-17.8-10.7-2.6-3.8-3.1-5.5-3.4-13.1-.3-6.3 0-10 1.2-13.6 1.8-5.5 7.2-11.4 12.6-13.7 5.5-2.4 14.6-2 20.7.8m56-1.3c4.2 1.6 8.3 5.8 10.9 11.4 1.9 4.1 2.4 6.6 2.3 13.5 0 9.5-1.3 14.3-5.4 19.6-6.8 8.9-21.5 9.9-29 1.8l-2.5-2.7V688h-11l.3-34.8.2-34.7 4.8-.3 4.7-.3v8.6l2.7-3.4c1.4-1.8 4-3.9 5.7-4.7 3.8-1.6 12.4-1.8 16.3-.3m57.4 2.4c5.6 4 9 10.5 9.6 19l.6 6.5h-37.5l.7 3.2c2.3 10.7 10.5 15.3 20 11.4 1.8-.8 3.8-2.4 4.5-3.5.9-1.7 2-2.1 6.1-2.1 4.8 0 5 .1 4.3 2.2-3 9.9-17 15.4-29.5 11.6-6.1-1.8-11.5-7-13.8-13.4-2.3-6-2.8-15.5-1.1-21.6 1.5-5.4 6.8-11.8 12-14.5 3.9-2.1 5.6-2.4 12.2-2.1s8.2.7 11.9 3.3m45.9 1.4v4.9l-4.9-.1c-5.6-.1-9.7 2.1-11.1 5.9-.6 1.4-1 10.2-1 19.5V669h-11v-51.1l5.3.3c5 .3 5.2.4 5.1 3-.1 1.6 0 2.8.1 2.8s1.9-1.6 3.9-3.5c3.2-3 4.4-3.5 8.7-3.5h4.9zm-774 11.8c0 17.7.9 22.3 4.8 25.4 4.1 3.2 11.6 2.3 15.4-2l2.8-3.1v-36h11v51h-10v-8.2l-2.7 3.3c-6.1 7.2-18.2 8-25.2 1.6-5.3-4.9-6.1-8.6-6.1-29V618h10zm473.3 4 6.4 19.8 6.3-19.8 6.4-19.7H649l-1.9 4.7c-1 2.7-5.3 14.1-9.6 25.5l-7.9 20.8h-10.2l-9.5-25.5-9.6-25.5h11.6z"/><path d="M351 406.1c-13.1 2.1-16 3-18 5.6-2.7 3.5-2.5 6.5.6 10.2 2.2 2.7 3.2 3.1 7.6 3.1 5.9 0 10.9-2.1 14.3-6.2 2-2.4 2.5-4.1 2.5-8.4 0-3-.3-5.3-.7-5.3-.5.1-3.3.5-6.3 1M541.3 380.6c-3.1 1.5-8.3 9.8-8.3 13.1 0 1 3.4 1.3 15.6 1.3h15.7l-.7-3.3c-1-5.2-3.8-9.6-7.2-11.2-4.1-1.9-11-1.9-15.1.1M760.1 380.7c-2.4 1.2-4.1 3.2-5.7 6.7-1.3 2.8-2.4 5.7-2.4 6.3 0 1 3.8 1.3 15.5 1.3H783v-2.5c0-4.4-3.8-10.5-7.5-12.1-4.6-1.9-11.2-1.7-15.4.3M762 497.7c-2.3 1-4.9 4.6-5 7.1 0 2.8 2.1 7.1 4.8 9.5 1.9 1.7 2.2 1.7 5 .3 4.1-2.1 7.2-6.3 7.2-9.8 0-5.5-6.4-9.3-12-7.1M756 531.5c-2.7 2.8-3.4 4.4-3.8 8.7-.3 4.9-.1 5.5 2.7 8.2 3.5 3.4 10.7 4.5 16.4 2.7 6.5-2.2 6.3-2.9-2.3-13.2-4.4-5.1-8.3-9.5-8.8-9.7-.4-.1-2.3 1.3-4.2 3.3M341.2 524.6l.3 25.9 9.3-.2c18-.5 25.1-6.7 26-22.8 1-19.5-6.1-27.3-25.9-28.3l-9.9-.5zM536.5 518.3c-8.1 8.1-6.5 25.5 2.8 30.3 7 3.7 16.5-.6 18.7-8.5 2.3-8.5.9-16.1-4-21.2-3.4-3.6-4.1-3.9-8.9-3.9-4.7 0-5.7.4-8.6 3.3M649.5 517.2c-1.5 1.2-3.4 3.6-4.1 5.4-2.7 6.5-2.8 6.4 12 6.4h13.5l-1-3.3c-2.2-7.9-5.7-10.7-13.2-10.7-3 0-5.3.7-7.2 2.2M412.6 517.1c-2.9 2.3-4.4 4.7-5.6 9l-.9 2.9h13.5c12.8 0 13.4-.1 13.4-2 0-3-2.6-7.5-5.6-9.9-3.6-2.9-11.2-2.9-14.8 0M498 634.4V660h8c13.2 0 21-3.9 24.5-12.2 2.3-5.6 2.1-21.8-.4-26.6-4.1-8-10.4-11.2-23.3-12l-8.8-.5zM333 646.1c-8.8 1-12.4 3.2-12.8 7.7-.9 8.6 11.9 11.1 19.6 4 1.7-1.7 2.2-3.2 2.2-7.5 0-2.9-.3-5.2-.7-5.2-.5.1-4.2.5-8.3 1M569.1 626.3c-3.1 1.5-5.8 5.3-7 9.4l-1 3.3h27.1l-.7-3.3c-1.3-6.6-6.1-10.7-12.5-10.7-1.9 0-4.6.6-5.9 1.3M667 627.7c-3 2.5-3.8 3.8-5.4 9l-.7 2.3H688l-.6-2.8c-1-4.3-3.8-8.6-6.5-9.9-4.3-2.2-10.4-1.6-13.9 1.4M740.5 628.1c-2.1 1.9-3.9 4.6-4.6 7.2-1.4 5.2-.8 15.2 1.2 19.1 4.5 9.2 18.1 9.8 23.1 1 2.9-4.9 3.4-14.9 1.1-20.9-3.6-9.5-13.6-12.7-20.8-6.4M798.2 627c-4.4 2.7-6.2 7.4-6.2 16 0 12.5 4.1 18 13.6 18 4.5 0 5.7-.4 8.3-3.1 7.3-7.2 6.4-25.4-1.4-30.5-4.1-2.7-10.5-2.8-14.3-.4M854.1 626.3c-3.1 1.5-5.8 5.3-7 9.4l-1 3.3h27.1l-.7-3.3c-1.3-6.6-6.1-10.7-12.5-10.7-1.9 0-4.6.6-5.9 1.3"/></svg>